<svg version="1.1" viewBox="0 0 303.31 277.32" xmlns="http://www.w3.org/2000/svg"><defs><style>.a,.b,.d,.e{isolation:isolate;}.b,.e{font-size:9.99999px;}.b,.d{font-family:ArialMT, Arial;}.c,.h,.j{fill:none;}.c{stroke:#000;stroke-width:0.38765px;}.c,.f{stroke-linejoin:round;}.d{font-size:10px;}.e{font-family:Arial-BoldMT, Arial;font-weight:700;}.f{fill:#fff;stroke:#585858;stroke-width:4px;}.g{fill:#89a0cc;}.h{stroke:#abdbac;}.h,.j{stroke-miterlimit:10;stroke-width:8px;}.i{fill:#abdbac;}.j{stroke:#e6e6e6;}.k{fill:#e6e6e6;}</style></defs><title>ae-flow-chart</title><g class="a"><text class="b" transform="translate(6.6063 16.488)">src/index.ts</text></g><g class="a"><text class="b" transform="translate(6.6063 39.902)">src/Widget.ts</text></g><g class="a"><text class="b" transform="translate(6.6063 28.34)">src/Theme.ts</text></g><path class="c" transform="translate(-251.13 -65.933)" d="m252.07 67.774h82.11c0.41327 0 0.7483 0.05413 0.7483 0.12091v48.543c0 0.06678-0.335 0.12091-0.7483 0.12091h-82.11c-0.41328 0-0.7483-0.05413-0.7483-0.12091v-48.543c0-0.06678 0.33502-0.12091 0.7483-0.12091z"/><g class="a"><text class="b" transform="translate(159.25 14.842)">lib/index.d.ts</text></g><g class="a"><text class="b" transform="translate(159.25 38.256)">lib/Widget.d.ts</text></g><g class="a"><text class="b" transform="translate(159.25 26.693)">lib/Theme.d.ts</text></g><path class="c" transform="translate(-251.13 -65.933)" d="m405.09 66.127h82.11c0.41328 0 0.7483 0.05413 0.7483 0.12091v48.543c0 0.06679-0.335 0.12094-0.7483 0.12094h-82.11c-0.41328 0-0.7483-0.05415-0.7483-0.12094v-48.543c0-0.06678 0.33502-0.12091 0.7483-0.12091z"/><g class="a"><text class="d" transform="translate(109.28 12.266)">tsc</text></g><g class="a"><text class="e" transform="translate(.19383 125.26)">API Report</text></g><g class="a"><text class="b" transform="translate(.19384 136.06)">my-package.api.md</text></g><g class="a"><text class="e" transform="translate(101.58 125.25)">.d.ts Rollup</text></g><g class="a"><text class="b" transform="translate(101.58 137.13)">my-package.d.ts</text></g><g class="a"><text class="e" transform="translate(197.97 125.26)">Doc Model</text></g><g class="a"><text class="b" transform="translate(197.97 136.06)">my-package.api.json</text></g><g class="a"><text class="d" transform="translate(101.44 68.286)">api-extractor</text></g><g class="a"><text class="d" transform="translate(233.69 166.61)">api-documenter</text></g><g class="a"><text class="b" transform="translate(101.58 208.36)">third-party</text></g><g class="a"><text class="b" transform="translate(101.58 218.83)">consumers</text></g><g class="a"><text class="b" transform="translate(.20945 208.36)">API review</text></g><g class="a"><text class="b" transform="translate(.19383 220.57)">branch policy</text></g><path class="f" transform="translate(-251.13 -65.933)" d="m436.2 265.72h76.718a7.6709 7.6709 0 0 1 7.7123 7.6288v60.278a7.6709 7.6709 0 0 1-7.7123 7.6288h-76.718a7.6709 7.6709 0 0 1-7.7123-7.6288v-60.278a7.6709 7.6709 0 0 1 7.7123-7.6288z"/><path class="g" transform="translate(-251.13 -65.933)" d="m461.2 304.94v28.355c0 0.21393-0.06211 0.38733-0.13871 0.38733h-22.223c-0.0766 0-0.13871-0.1734-0.13871-0.38733v-28.355c0-0.21393 0.06211-0.38734 0.13871-0.38734h22.223c0.0766 0 0.13871 0.17341 0.13871 0.38734z"/><path class="g" transform="translate(-251.13 -65.933)" d="m510.45 304.6v3.32c0 0.025-0.11829 0.04537-0.26419 0.04537h-42.329c-0.14589 0-0.26419-0.02033-0.26419-0.04537v-3.32c0-0.02505 0.1183-0.04538 0.26419-0.04538h42.329c0.1459 0 0.26419 0.02033 0.26419 0.04538z"/><path class="g" transform="translate(-251.13 -65.933)" d="m510.45 309.29v3.32c0 0.025-0.11829 0.04538-0.26419 0.04538h-42.329c-0.14589 0-0.26419-0.02033-0.26419-0.04538v-3.32c0-0.025 0.1183-0.04537 0.26419-0.04537h42.329c0.1459 0 0.26419 0.02033 0.26419 0.04537z"/><path class="g" transform="translate(-251.13 -65.933)" d="m501.48 313.98v3.32c0 0.025-0.09351 0.04537-0.20887 0.04537h-33.466c-0.11535 0-0.20887-0.02033-0.20887-0.04537v-3.32c0-0.025 0.09352-0.04538 0.20887-0.04538h33.466c0.11536 0 0.20887 0.02033 0.20887 0.04538z"/><path class="g" transform="translate(-251.13 -65.933)" d="m510.45 320.97v3.32c0 0.025-0.11829 0.04537-0.26419 0.04537h-42.329c-0.14589 0-0.26419-0.02033-0.26419-0.04537v-3.32c0-0.025 0.1183-0.04537 0.26419-0.04537h42.329c0.1459 0 0.26419 0.02033 0.26419 0.04537z"/><path class="g" transform="translate(-251.13 -65.933)" d="m510.45 325.66v3.32c0 0.02505-0.11829 0.04538-0.26419 0.04538h-42.329c-0.14589 0-0.26419-0.02033-0.26419-0.04538v-3.32c0-0.025 0.1183-0.04537 0.26419-0.04537h42.329c0.1459-5e-5 0.26419 0.02028 0.26419 0.04537z"/><path class="g" transform="translate(-251.13 -65.933)" d="m501.48 330.35v3.32c0 0.025-0.09351 0.04537-0.20887 0.04537h-33.466c-0.11535 0-0.20887-0.02033-0.20887-0.04537v-3.32c0-0.025 0.09352-0.04537 0.20887-0.04537h33.466c0.11536 0 0.20887 0.02033 0.20887 0.04537z"/><g class="a"><text class="d" transform="translate(190.17 217.95)">API Reference</text></g><g class="a"><text class="d" transform="translate(187.43 230.64)">website</text></g><path class="h" transform="translate(-251.13 -65.933)" d="m282.17 170.2v-15.429a7.5918 7.5918 0 0 1 7.5918-7.5918h174.86a7.5918 7.5918 0 0 1 7.5918 7.5918v15.429"/><line class="h" x1="185.33" x2="185.33" y1="79.291" y2="57.373"/><line class="h" x1="97.284" x2="134.39" y1="23.24" y2="23.24"/><line class="h" x1="126.06" x2="126.06" y1="104.27" y2="80.76"/><polygon class="i" points="40.702 101.52 31.039 111.18 21.377 101.52"/><polygon class="i" points="136.21 101.52 126.55 111.18 116.89 101.52"/><polygon class="i" points="131.64 13.577 141.3 23.24 131.64 32.903"/><line class="j" x1="31.129" x2="31.129" y1="146.21" y2="183.31"/><polygon class="k" points="40.791 180.56 31.129 190.23 21.466 180.56"/><line class="j" x1="126.17" x2="126.17" y1="146.21" y2="183.31"/><polygon class="k" points="135.83 180.56 126.17 190.23 116.51 180.56"/><line class="h" x1="221.19" x2="221.19" y1="146.21" y2="183.31"/><polygon class="i" points="230.85 180.56 221.19 190.23 211.53 180.56"/><polygon class="i" points="230.76 101.52 221.1 111.18 211.44 101.52"/></svg>
