<?xml version="1.0" encoding="UTF-8"?>
<svg version="1.1" viewBox="0 0 222.78379 222.78382" xmlns="http://www.w3.org/2000/svg" xmlns:cc="http://creativecommons.org/ns#" xmlns:dc="http://purl.org/dc/elements/1.1/" xmlns:rdf="http://www.w3.org/1999/02/22-rdf-syntax-ns#"><title>404 - PAGE NOT FOUND</title><metadata><rdf:RDF><cc:Work rdf:about=""><dc:format>image/svg+xml</dc:format><dc:type rdf:resource="http://purl.org/dc/dcmitype/StillImage"/><dc:title>404 - PAGE NOT FOUND</dc:title></cc:Work></rdf:RDF></metadata><defs><style>.a{fill:#383938;}.b{fill:#adc5e7;}.c{fill:#5787bb;}.d{fill:#6bbf63;}</style></defs><path class="a" d="m32.968697 32.9687c43.68948-43.68948 114.219003-43.99619 157.531003-0.68413s43.00446 113.84065-0.685 157.53012-114.218073 43.99708-157.530133 0.685-43.00534-113.84154 0.68413-157.531" fill="#383938"/><path class="b" d="m100.70742 169.5347a3.69443 3.69443 0 0 1-1.655523 0.95548l-27.00529 7.23634a3.69261 3.69261 0 0 1-3.56735-0.9546l-40.93088-40.93085a3.69525 3.69525 0 0 1-0.95459-3.56736l14.98094-55.91181a3.6906 3.6906 0 0 1 2.611-2.611l27.00618-7.23724a3.69211 3.69211 0 0 1 4.52106 2.61011l8.8e-4 8.8e-4 6.01483 22.45153a3.69 3.69 0 0 1-2.48725 4.48659 24.25913 24.25913 0 0 0-10.15493 6.128 28.8579 28.8579 0 0 0-6.93761 27.90332c3.99958 14.92968 17.97643 24.12118 31.81981 20.92683a3.69217 3.69217 0 0 1 4.39643 2.641l3.297773 12.30631a3.6956 3.6956 0 0 1-0.95548 3.56647z" fill="#adc5e7"/><path class="c" d="m39.919737 72.09521a7.37945 7.37945 0 0 0-1.91095 3.311l-14.98275 55.91184a7.38639 7.38639 0 0 0 1.91273 7.13294l40.93 40.93a7.3864 7.3864 0 0 0 7.13294 1.91272l27.005293-7.23636a7.38163 7.38163 0 0 0 5.22375-9.03859l-2e-3 -5e-3 -3.29689-12.30719a7.385 7.385 0 0 0-8.794633-5.28385c-11.89443 2.74622-23.94-5.28474-27.42249-18.28313a25.16443 25.16443 0 0 1 5.98389-24.33862 20.59224 20.59224 0 0 1 8.62317-5.20607 7.38284 7.38284 0 0 0 4.97361-8.97407l-6.01571-22.45064a7.383 7.383 0 0 0-9.0439-5.222l-27.0053 7.23634a7.37943 7.37943 0 0 0-3.311 1.911m5.222 5.222 27.00529-7.23635 6.01571 22.45064a28.07843 28.07843 0 0 0-11.68582 7.0472 32.55955 32.55955 0 0 0-7.89488 31.47151c4.50515 16.81589 20.57946 27.17677 36.21624 23.56787l3.29777 12.30631-27.00618 7.23547-40.93-40.93 14.98183-55.9127" fill="#5787bb"/><path class="b" d="m169.53516 100.70696a3.69761 3.69761 0 0 1-3.56736 0.95636l-12.30542-3.29865a3.68986 3.68986 0 0 1-2.641-4.39644c3.19435-13.84338-5.99715-27.82023-20.92683-31.8198a28.85831 28.85831 0 0 0-27.9042 6.93848 24.26276 24.26276 0 0 0-6.128003 10.15494 3.68888 3.68888 0 0 1-4.4857 2.48636l-22.45153-6.01483a3.69119 3.69119 0 0 1-2.611-4.52017v-2e-3l7.23636-27.00529a3.69057 3.69057 0 0 1 2.611-2.611l55.912703-14.98183a3.6903 3.6903 0 0 1 3.56558 0.95636l40.93088 40.93088a3.69029 3.69029 0 0 1 0.95636 3.56558l-7.23635 27.0053a3.698 3.698 0 0 1-0.95548 1.65551" fill="#adc5e7"/><path class="c" d="m72.094777 39.92017a7.37945 7.37945 0 0 0-1.91095 3.311l-7.23547 27.0044a7.38452 7.38452 0 0 0 5.2211 9.04478l22.45152 6.01483a7.38135 7.38135 0 0 0 8.97319-4.97273 20.60413 20.60413 0 0 1 5.207003-8.62405 25.16022 25.16022 0 0 1 24.33857-5.98388c12.9975 3.48338 21.02847 15.529 18.28313 27.42249a7.38658 7.38658 0 0 0 5.283 8.79552l12.3072 3.29689a7.38218 7.38218 0 0 0 9.043-5.2158l8.9e-4 -6e-3 7.23635-27.00529a7.38493 7.38493 0 0 0-1.91184-7.13382l-40.93-40.93a7.38493 7.38493 0 0 0-7.13382-1.91184l-55.911833 14.98269a7.37952 7.37952 0 0 0-3.311 1.911m5.222 5.222 55.912703-14.98182 40.93 40.93-7.23548 27.00616-12.30543-3.29866c3.608-15.6359-6.75287-31.7102-23.56787-36.21624a32.56113 32.56113 0 0 0-31.471553 7.89485 28.08946 28.08946 0 0 0-7.0472 11.68582l-22.45069-6.01577 7.23547-27.00441" fill="#5787bb"/><path class="b" d="m91.185867 90.25796a31.91875 31.91875 0 1 1 0-45.13993 31.9189 31.9189 0 0 1 0 45.13993" fill="#adc5e7"/><path class="c" d="m43.435037 42.50713a35.61125 35.61125 0 1 0 50.36191 0 35.61132 35.61132 0 0 0-50.36191 0m5.222 5.222a28.22625 28.22625 0 1 1 0 39.918 28.22568 28.22568 0 0 1 0-39.918" fill="#5787bb"/><g fill="#6bbf63"><rect class="d" transform="rotate(213.2787)" x="-195.58034" y="-47.569965" width="21.12245" height="7.3552799"/><rect class="d" transform="rotate(210)" x="-252.00465" y="-63.366398" width="21.12245" height="7.3552799"/><rect class="d" transform="rotate(103.19447)" x="76.92028" y="-190.00218" width="21.12245" height="7.3552799"/><rect class="d" transform="rotate(165.74121)" x="-152.47083" y="-191.08594" width="21.12245" height="7.3552799"/><rect class="d" transform="rotate(155.85821)" x="-59.040207" y="-210.02635" width="21.12245" height="7.3552799"/><rect class="d" transform="rotate(99.48185)" x="146.74579" y="-182.00723" width="21.12245" height="7.3552799"/></g></svg>
